HIERARCHY
ROOT Hips
{
	OFFSET -0.001795 -0.223333 0.028219
	CHANNELS 6 Xposition Yposition Zposition Zrotation Yrotation Xrotation 
	JOINT LeftUpLeg
	{
		OFFSET 0.069520 -0.091406 -0.006815
		CHANNELS 3 Zrotation Yrotation Xrotation
		JOINT LeftLeg
		{
			OFFSET 0.034277 -0.375199 -0.004496
			CHANNELS 3 Zrotation Yrotation Xrotation
			JOINT LeftFoot
			{
				OFFSET -0.013596 -0.397961 -0.043693
				CHANNELS 3 Zrotation Yrotation Xrotation
				JOINT LeftToe
				{
					OFFSET 0.026358 -0.055791 0.119288
					CHANNELS 3 Zrotation Yrotation Xrotation
					End Site
					{
						OFFSET 0.000000 0.000000 0.000000
					}
				}
			}
		}
	}
	JOINT RightUpLeg
	{
		OFFSET -0.067670 -0.090522 -0.004320
		CHANNELS 3 Zrotation Yrotation Xrotation
		JOINT RightLeg
		{
			OFFSET -0.038290 -0.382569 -0.008850
			CHANNELS 3 Zrotation Yrotation Xrotation
			JOINT RightFoot
			{
				OFFSET 0.015774 -0.398415 -0.042312
				CHANNELS 3 Zrotation Yrotation Xrotation
				JOINT RightToe
				{
					OFFSET -0.025372 -0.048144 0.123348
					CHANNELS 3 Zrotation Yrotation Xrotation
					End Site
					{
						OFFSET 0.000000 0.000000 0.000000
					}
				}
			}
		}
	}
	JOINT Spine
	{
		OFFSET -0.002533 0.108963 -0.026696
		CHANNELS 3 Zrotation Yrotation Xrotation
		JOINT Spine1
		{
			OFFSET 0.005487 0.135180 0.001092
			CHANNELS 3 Zrotation Yrotation Xrotation
			JOINT Spine2
			{
				OFFSET 0.001457 0.052922 0.025425
				CHANNELS 3 Zrotation Yrotation Xrotation
				JOINT Neck
				{
					OFFSET -0.002778 0.213870 -0.042857
					CHANNELS 3 Zrotation Yrotation Xrotation
					JOINT Head
					{
						OFFSET 0.005152 0.064970 0.051349
						CHANNELS 3 Zrotation Yrotation Xrotation
						End Site
						{
							OFFSET 0.000000 0.000000 0.000000
						}
					}
				}
				JOINT LeftShoulder
				{
					OFFSET 0.078845 0.121749 -0.034090
					CHANNELS 3 Zrotation Yrotation Xrotation
					JOINT LeftArm
					{
						OFFSET 0.090977 0.030469 -0.008868
						CHANNELS 3 Zrotation Yrotation Xrotation
						JOINT LeftForeArm
						{
							OFFSET 0.259612 -0.012772 -0.027456
							CHANNELS 3 Zrotation Yrotation Xrotation
							JOINT LeftHand
							{
								OFFSET 0.249234 0.008986 -0.001171
								CHANNELS 3 Zrotation Yrotation Xrotation
								End Site
								{
									OFFSET 0.000000 0.000000 0.000000
								}
							}
						}
					}
				}
				JOINT RightShoulder
				{
					OFFSET -0.081759 0.118833 -0.038615
					CHANNELS 3 Zrotation Yrotation Xrotation
					JOINT RightArm
					{
						OFFSET -0.096012 0.032551 -0.009143
						CHANNELS 3 Zrotation Yrotation Xrotation
						JOINT RightForeArm
						{
							OFFSET -0.253742 -0.013329 -0.021401
							CHANNELS 3 Zrotation Yrotation Xrotation
							JOINT RightHand
							{
								OFFSET -0.255298 0.007772 -0.005559
								CHANNELS 3 Zrotation Yrotation Xrotation
								End Site
								{
									OFFSET 0.000000 0.000000 0.000000
								}
							}
						}
					}
				}
			}
		}
	}
}
MOTION
Frames: 14
Frame Time: 0.050000
-0.039761 0.840345 0.007682 -3.832916 -22.574963 2.424770 14.013443 5.310428 -37.248151 2.885854 2.384060 55.732592 5.868860 11.992048 1.297472 0.000000 0.000000 0.000000 -0.405908 7.952283 -42.657924 16.230345 -1.773434 45.912181 -3.143594 -8.916351 0.923594 0.000000 0.000000 0.000000 2.232282 4.531489 66.504996 0.692943 -0.282116 4.052511 -12.033224 6.267967 0.700432 17.908586 -11.382815 -9.351298 0.000000 0.000000 0.000000 -13.031348 -37.269291 15.701556 -40.925170 -18.822907 1.800931 4.368995 -60.038273 -1.077892 0.000000 0.000000 0.000000 16.686575 33.191012 17.829560 41.373156 34.843029 7.815768 11.850909 45.437700 6.732062 0.000000 0.000000 0.000000 
-0.048721 0.841551 0.007484 -4.067143 -24.653532 1.478444 14.741114 5.763098 -35.766479 3.881462 2.444096 56.499201 5.900852 12.146707 3.246203 0.000000 0.000000 0.000000 0.553125 8.164256 -41.246872 17.211801 -1.691694 45.757768 -2.586816 -7.721846 1.322922 0.000000 0.000000 0.000000 2.250045 5.454970 67.160887 0.534281 -0.178586 4.748100 -12.051652 5.390678 0.667875 17.104893 -11.132998 -8.466880 0.000000 0.000000 0.000000 -13.442555 -37.622826 16.180549 -39.308713 -17.027944 1.117463 5.580254 -61.152173 -1.668750 0.000000 0.000000 0.000000 18.241410 35.194045 19.169386 40.287013 36.883456 8.306389 8.633676 42.045252 4.794948 0.000000 0.000000 0.000000 
-0.057661 0.845503 0.007063 -4.152378 -26.786125 0.783217 15.359361 6.119405 -34.221683 4.633350 2.640599 56.639158 5.994765 12.393656 5.660921 0.000000 0.000000 0.000000 1.617748 8.389027 -39.944187 17.588828 -1.336793 45.449673 -1.792407 -6.324372 2.337692 0.000000 0.000000 0.000000 2.068914 6.418607 67.145990 0.209923 0.037588 5.708411 -12.060213 4.445069 0.563533 16.347585 -10.803589 -7.853956 0.000000 0.000000 0.000000 -12.998950 -37.215047 16.088541 -39.347185 -15.757208 0.667287 4.910391 -62.484006 -1.147760 0.000000 0.000000 0.000000 19.381425 36.572564 19.999010 39.552971 37.411194 8.339746 7.348968 40.532496 4.045339 0.000000 0.000000 0.000000 
-0.066283 0.850304 0.006683 -4.269256 -29.050172 0.249022 15.892954 6.444473 -32.679361 5.521198 2.577256 55.269190 6.491643 13.222793 11.064301 0.000000 0.000000 0.000000 2.724125 8.516724 -38.423004 16.782224 -0.503829 44.013089 0.455161 -2.416829 4.650861 0.000000 0.000000 0.000000 2.251351 7.176239 67.080366 -0.237311 0.335040 6.385110 -12.124727 3.030348 0.291435 15.061765 -10.116630 -7.074849 0.000000 0.000000 0.000000 -13.764707 -36.439979 16.233853 -38.619368 -14.166432 0.119532 3.680255 -64.254970 -0.171927 0.000000 0.000000 0.000000 20.482372 37.441234 20.353149 39.058051 37.817176 8.442555 6.632527 39.168700 3.546726 0.000000 0.000000 0.000000 
-0.074421 0.854774 0.006555 -4.230606 -31.116254 -0.283914 15.934713 6.425785 -30.937734 6.672487 2.218890 53.161789 7.313552 14.240119 16.967713 0.000000 0.000000 0.000000 3.924653 8.593418 -36.905118 15.153176 0.403069 41.383691 3.616485 1.197418 9.406508 0.000000 0.000000 0.000000 2.189542 7.916684 66.526384 -0.860888 0.764249 7.288541 -12.070993 1.280162 0.164664 13.623558 -9.193848 -6.739990 0.000000 0.000000 0.000000 -13.674018 -35.244291 16.046255 -38.556307 -13.113566 -0.286305 4.972689 -65.775515 -0.666529 0.000000 0.000000 0.000000 21.248128 38.304858 20.428363 39.333661 37.625447 8.591549 6.557099 38.648157 3.364082 0.000000 0.000000 0.000000 
-0.082273 0.857659 0.006733 -4.071688 -32.721917 -0.816700 16.041187 6.367614 -29.352964 7.528414 1.838041 50.711091 8.147031 15.015889 23.751273 0.000000 0.000000 0.000000 4.557442 8.530517 -35.758040 14.086404 0.824816 38.589198 7.569345 4.141391 16.069312 0.000000 0.000000 0.000000 2.345293 8.396943 66.322379 -1.814283 1.335144 7.343825 -11.517080 -0.177013 0.675583 12.278065 -8.204269 -7.180624 0.000000 0.000000 0.000000 -13.910676 -34.454422 16.138219 -38.418645 -12.755346 -0.512200 6.189416 -66.004664 -1.120868 0.000000 0.000000 0.000000 21.021961 39.033967 20.102178 39.502704 38.007144 8.871920 6.395928 37.546481 3.111346 0.000000 0.000000 0.000000 
-0.090179 0.857963 0.007343 -3.899605 -33.604070 -1.181264 16.128183 6.305388 -28.319716 8.372156 1.238966 48.240617 8.864492 15.593494 31.280140 0.000000 0.000000 0.000000 5.167062 8.573885 -35.138777 13.253476 1.049752 36.766711 10.714342 5.518138 21.961112 0.000000 0.000000 0.000000 2.326909 8.586661 65.615771 -2.228350 1.597855 7.381689 -11.530469 -1.027629 1.028117 11.312015 -7.510836 -7.514026 0.000000 0.000000 0.000000 -14.700409 -33.745204 16.277415 -38.083812 -12.209420 -0.760778 6.828906 -66.312510 -1.344712 0.000000 0.000000 0.000000 21.381313 39.144070 19.829077 39.631923 37.523438 8.812227 6.333073 37.703614 3.038378 0.000000 0.000000 0.000000 
-0.098389 0.857223 0.008574 -3.360484 -33.757073 -1.717562 16.005604 6.129028 -27.685741 8.510627 1.062333 46.964758 9.908220 16.629000 35.936014 0.000000 0.000000 0.000000 5.196251 8.524425 -34.944519 13.593466 1.069141 37.536793 10.632128 5.509260 21.811339 0.000000 0.000000 0.000000 2.263761 8.711696 65.614177 -2.925743 1.933187 6.649623 -11.360339 -1.991564 1.997580 10.522501 -6.866678 -8.550661 0.000000 0.000000 0.000000 -14.286370 -33.654714 16.395639 -38.190807 -12.626316 -0.743227 10.241718 -65.253031 -3.277682 0.000000 0.000000 0.000000 20.793673 39.486712 19.402450 39.923018 38.082254 9.103503 5.745934 37.310857 2.752571 0.000000 0.000000 0.000000 
-0.106838 0.855293 0.010344 -3.059054 -33.524970 -1.941032 16.065522 6.078957 -27.552561 8.289803 0.854107 45.191724 12.621448 19.148934 43.160109 0.000000 0.000000 0.000000 5.058007 8.625578 -35.374102 14.433081 0.871112 38.814386 10.276797 4.987373 21.876593 0.000000 0.000000 0.000000 2.169932 8.608976 65.354523 -3.377692 2.146029 6.207692 -11.351179 -2.556038 2.509792 9.766970 -6.184814 -9.863956 0.000000 0.000000 0.000000 -14.091694 -33.904774 16.640277 -38.101984 -13.354336 -0.578938 13.725352 -64.341566 -5.292111 0.000000 0.000000 0.000000 20.681934 39.619186 19.185170 40.010304 38.036756 9.132919 5.397123 36.872266 2.569819 0.000000 0.000000 0.000000 
-0.115331 0.853354 0.012791 -2.519468 -32.488713 -2.219453 15.525129 5.676464 -27.546455 8.201274 0.412336 42.963042 16.518898 22.214526 50.618310 0.000000 0.000000 0.000000 4.501790 8.491577 -35.738503 15.239558 0.521317 39.813303 9.640325 4.351684 21.476593 0.000000 0.000000 0.000000 1.729710 8.424269 64.933323 -3.631083 2.323285 6.667322 -11.590227 -2.688416 2.531700 9.355117 -5.777582 -10.647446 0.000000 0.000000 0.000000 -13.577704 -34.814054 16.963316 -38.143219 -14.409811 -0.249676 17.276376 -62.781978 -7.296383 0.000000 0.000000 0.000000 19.323765 39.478139 18.703579 41.112546 38.923610 9.730610 4.078490 37.037056 2.161175 0.000000 0.000000 0.000000 
-0.123299 0.851316 0.015753 -2.102301 -30.903128 -2.109604 14.846019 5.345879 -28.493921 8.547566 -0.259312 41.573591 19.574866 24.265795 57.243334 0.000000 0.000000 0.000000 4.043184 8.402645 -36.320443 15.584916 0.171421 40.634134 8.786965 3.627710 20.674961 0.000000 0.000000 0.000000 1.420975 8.078684 65.074756 -3.554813 2.193488 6.016401 -12.056591 -1.893106 2.958344 9.060945 -5.316191 -11.996461 0.000000 0.000000 0.000000 -12.925285 -35.940157 17.115425 -38.312705 -16.038126 0.279457 20.942514 -62.117855 -9.557349 0.000000 0.000000 0.000000 17.779305 39.247447 18.458992 42.129126 39.835992 10.250730 2.187136 36.710117 1.618290 0.000000 0.000000 0.000000 
-0.130453 0.849640 0.019233 -1.334940 -28.206682 -2.215087 14.118283 4.729635 -29.027454 8.161406 -0.776871 39.203288 22.930201 26.165819 63.234925 0.000000 0.000000 0.000000 2.469258 7.811251 -36.854931 16.694934 -0.706867 41.129443 7.663377 2.469133 19.933787 0.000000 0.000000 0.000000 1.213622 7.285732 65.390359 -3.713182 2.204562 5.557179 -12.150888 -1.515826 3.672724 9.077098 -5.061056 -13.446516 0.000000 0.000000 0.000000 -11.086992 -36.902583 16.842812 -39.538075 -18.328132 1.070974 24.731445 -60.722165 -11.599884 0.000000 0.000000 0.000000 15.865427 38.774445 17.848565 42.927308 40.850407 10.772756 0.752543 36.804068 1.221124 0.000000 0.000000 0.000000 
-0.136859 0.848572 0.023421 -0.770413 -25.382918 -2.072639 13.258297 4.150095 -30.097593 8.283033 -1.325858 39.120226 22.425744 26.109474 62.143697 0.000000 0.000000 0.000000 1.338483 7.264540 -37.203859 17.087747 -1.398469 41.382538 6.539696 1.428748 18.868408 0.000000 0.000000 0.000000 1.068152 6.407600 65.927502 -3.770160 2.143227 4.818148 -12.708208 -0.341428 4.271243 9.564189 -5.089641 -14.410755 0.000000 0.000000 0.000000 -10.898324 -37.874988 16.918952 -39.152917 -20.076364 1.621383 26.572506 -60.922917 -13.012513 0.000000 0.000000 0.000000 15.186199 38.030179 17.731995 43.241884 41.277550 10.949345 -0.703535 36.629361 0.860714 0.000000 0.000000 0.000000 
-0.142442 0.848937 0.028300 -0.121668 -22.732560 -1.818903 12.448971 3.534437 -30.721696 8.028401 -1.668629 38.350383 22.306733 26.250431 61.250738 0.000000 0.000000 0.000000 0.120898 6.585174 -37.158920 17.345258 -2.021258 40.965802 5.577712 0.659179 17.632855 0.000000 0.000000 0.000000 0.464006 5.815643 66.083406 -3.618556 2.027942 4.748025 -13.277811 0.522720 4.310603 9.885759 -5.185152 -14.330401 0.000000 0.000000 0.000000 -10.958102 -38.703026 17.077958 -38.289055 -20.949989 1.867242 29.095040 -60.585042 -14.666203 0.000000 0.000000 0.000000 15.166152 37.595379 17.932027 42.986657 41.330208 10.845752 -1.701447 37.271946 0.639416 0.000000 0.000000 0.000000 
